%TF.GenerationSoftware,KiCad,Pcbnew,7.0.7-7.0.7~ubuntu22.04.1*%
%TF.CreationDate,2023-08-23T16:26:45+03:00*%
%TF.ProjectId,updi_hv_reset,75706469-5f68-4765-9f72-657365742e6b,rev?*%
%TF.SameCoordinates,Original*%
%TF.FileFunction,Legend,Top*%
%TF.FilePolarity,Positive*%
%FSLAX46Y46*%
G04 Gerber Fmt 4.6, Leading zero omitted, Abs format (unit mm)*
G04 Created by KiCad (PCBNEW 7.0.7-7.0.7~ubuntu22.04.1) date 2023-08-23 16:26:45*
%MOMM*%
%LPD*%
G01*
G04 APERTURE LIST*
%ADD10C,0.300000*%
%ADD11C,0.200000*%
%ADD12C,0.150000*%
%ADD13C,0.120000*%
%ADD14C,0.350000*%
G04 APERTURE END LIST*
D10*
X122784510Y-121870828D02*
X122784510Y-123085114D01*
X122784510Y-123085114D02*
X122855939Y-123227971D01*
X122855939Y-123227971D02*
X122927368Y-123299400D01*
X122927368Y-123299400D02*
X123070225Y-123370828D01*
X123070225Y-123370828D02*
X123355939Y-123370828D01*
X123355939Y-123370828D02*
X123498796Y-123299400D01*
X123498796Y-123299400D02*
X123570225Y-123227971D01*
X123570225Y-123227971D02*
X123641653Y-123085114D01*
X123641653Y-123085114D02*
X123641653Y-121870828D01*
X124355939Y-123370828D02*
X124355939Y-121870828D01*
X124355939Y-121870828D02*
X124927368Y-121870828D01*
X124927368Y-121870828D02*
X125070225Y-121942257D01*
X125070225Y-121942257D02*
X125141654Y-122013685D01*
X125141654Y-122013685D02*
X125213082Y-122156542D01*
X125213082Y-122156542D02*
X125213082Y-122370828D01*
X125213082Y-122370828D02*
X125141654Y-122513685D01*
X125141654Y-122513685D02*
X125070225Y-122585114D01*
X125070225Y-122585114D02*
X124927368Y-122656542D01*
X124927368Y-122656542D02*
X124355939Y-122656542D01*
X125855939Y-123370828D02*
X125855939Y-121870828D01*
X125855939Y-121870828D02*
X126213082Y-121870828D01*
X126213082Y-121870828D02*
X126427368Y-121942257D01*
X126427368Y-121942257D02*
X126570225Y-122085114D01*
X126570225Y-122085114D02*
X126641654Y-122227971D01*
X126641654Y-122227971D02*
X126713082Y-122513685D01*
X126713082Y-122513685D02*
X126713082Y-122727971D01*
X126713082Y-122727971D02*
X126641654Y-123013685D01*
X126641654Y-123013685D02*
X126570225Y-123156542D01*
X126570225Y-123156542D02*
X126427368Y-123299400D01*
X126427368Y-123299400D02*
X126213082Y-123370828D01*
X126213082Y-123370828D02*
X125855939Y-123370828D01*
X127355939Y-123370828D02*
X127355939Y-121870828D01*
X127713083Y-123513685D02*
X128855940Y-123513685D01*
X129213082Y-123370828D02*
X129213082Y-121870828D01*
X129213082Y-122585114D02*
X130070225Y-122585114D01*
X130070225Y-123370828D02*
X130070225Y-121870828D01*
X130570226Y-121870828D02*
X131070226Y-123370828D01*
X131070226Y-123370828D02*
X131570226Y-121870828D01*
D11*
X117253006Y-121962742D02*
X117995863Y-121962742D01*
X117995863Y-121962742D02*
X117595863Y-122419885D01*
X117595863Y-122419885D02*
X117767292Y-122419885D01*
X117767292Y-122419885D02*
X117881578Y-122477028D01*
X117881578Y-122477028D02*
X117938720Y-122534171D01*
X117938720Y-122534171D02*
X117995863Y-122648457D01*
X117995863Y-122648457D02*
X117995863Y-122934171D01*
X117995863Y-122934171D02*
X117938720Y-123048457D01*
X117938720Y-123048457D02*
X117881578Y-123105600D01*
X117881578Y-123105600D02*
X117767292Y-123162742D01*
X117767292Y-123162742D02*
X117424435Y-123162742D01*
X117424435Y-123162742D02*
X117310149Y-123105600D01*
X117310149Y-123105600D02*
X117253006Y-123048457D01*
X118510149Y-123048457D02*
X118567292Y-123105600D01*
X118567292Y-123105600D02*
X118510149Y-123162742D01*
X118510149Y-123162742D02*
X118453006Y-123105600D01*
X118453006Y-123105600D02*
X118510149Y-123048457D01*
X118510149Y-123048457D02*
X118510149Y-123162742D01*
X118967292Y-121962742D02*
X119710149Y-121962742D01*
X119710149Y-121962742D02*
X119310149Y-122419885D01*
X119310149Y-122419885D02*
X119481578Y-122419885D01*
X119481578Y-122419885D02*
X119595864Y-122477028D01*
X119595864Y-122477028D02*
X119653006Y-122534171D01*
X119653006Y-122534171D02*
X119710149Y-122648457D01*
X119710149Y-122648457D02*
X119710149Y-122934171D01*
X119710149Y-122934171D02*
X119653006Y-123048457D01*
X119653006Y-123048457D02*
X119595864Y-123105600D01*
X119595864Y-123105600D02*
X119481578Y-123162742D01*
X119481578Y-123162742D02*
X119138721Y-123162742D01*
X119138721Y-123162742D02*
X119024435Y-123105600D01*
X119024435Y-123105600D02*
X118967292Y-123048457D01*
X120053006Y-121962742D02*
X120453006Y-123162742D01*
X120453006Y-123162742D02*
X120853006Y-121962742D01*
X106728720Y-121912742D02*
X106157292Y-121912742D01*
X106157292Y-121912742D02*
X106100149Y-122484171D01*
X106100149Y-122484171D02*
X106157292Y-122427028D01*
X106157292Y-122427028D02*
X106271578Y-122369885D01*
X106271578Y-122369885D02*
X106557292Y-122369885D01*
X106557292Y-122369885D02*
X106671578Y-122427028D01*
X106671578Y-122427028D02*
X106728720Y-122484171D01*
X106728720Y-122484171D02*
X106785863Y-122598457D01*
X106785863Y-122598457D02*
X106785863Y-122884171D01*
X106785863Y-122884171D02*
X106728720Y-122998457D01*
X106728720Y-122998457D02*
X106671578Y-123055600D01*
X106671578Y-123055600D02*
X106557292Y-123112742D01*
X106557292Y-123112742D02*
X106271578Y-123112742D01*
X106271578Y-123112742D02*
X106157292Y-123055600D01*
X106157292Y-123055600D02*
X106100149Y-122998457D01*
X107128720Y-121912742D02*
X107528720Y-123112742D01*
X107528720Y-123112742D02*
X107928720Y-121912742D01*
D12*
X101956666Y-105214819D02*
X101956666Y-105929104D01*
X101956666Y-105929104D02*
X101909047Y-106071961D01*
X101909047Y-106071961D02*
X101813809Y-106167200D01*
X101813809Y-106167200D02*
X101670952Y-106214819D01*
X101670952Y-106214819D02*
X101575714Y-106214819D01*
X102385238Y-105310057D02*
X102432857Y-105262438D01*
X102432857Y-105262438D02*
X102528095Y-105214819D01*
X102528095Y-105214819D02*
X102766190Y-105214819D01*
X102766190Y-105214819D02*
X102861428Y-105262438D01*
X102861428Y-105262438D02*
X102909047Y-105310057D01*
X102909047Y-105310057D02*
X102956666Y-105405295D01*
X102956666Y-105405295D02*
X102956666Y-105500533D01*
X102956666Y-105500533D02*
X102909047Y-105643390D01*
X102909047Y-105643390D02*
X102337619Y-106214819D01*
X102337619Y-106214819D02*
X102956666Y-106214819D01*
X100958095Y-118574819D02*
X100958095Y-119384342D01*
X100958095Y-119384342D02*
X101005714Y-119479580D01*
X101005714Y-119479580D02*
X101053333Y-119527200D01*
X101053333Y-119527200D02*
X101148571Y-119574819D01*
X101148571Y-119574819D02*
X101339047Y-119574819D01*
X101339047Y-119574819D02*
X101434285Y-119527200D01*
X101434285Y-119527200D02*
X101481904Y-119479580D01*
X101481904Y-119479580D02*
X101529523Y-119384342D01*
X101529523Y-119384342D02*
X101529523Y-118574819D01*
X101958095Y-119527200D02*
X102100952Y-119574819D01*
X102100952Y-119574819D02*
X102339047Y-119574819D01*
X102339047Y-119574819D02*
X102434285Y-119527200D01*
X102434285Y-119527200D02*
X102481904Y-119479580D01*
X102481904Y-119479580D02*
X102529523Y-119384342D01*
X102529523Y-119384342D02*
X102529523Y-119289104D01*
X102529523Y-119289104D02*
X102481904Y-119193866D01*
X102481904Y-119193866D02*
X102434285Y-119146247D01*
X102434285Y-119146247D02*
X102339047Y-119098628D01*
X102339047Y-119098628D02*
X102148571Y-119051009D01*
X102148571Y-119051009D02*
X102053333Y-119003390D01*
X102053333Y-119003390D02*
X102005714Y-118955771D01*
X102005714Y-118955771D02*
X101958095Y-118860533D01*
X101958095Y-118860533D02*
X101958095Y-118765295D01*
X101958095Y-118765295D02*
X102005714Y-118670057D01*
X102005714Y-118670057D02*
X102053333Y-118622438D01*
X102053333Y-118622438D02*
X102148571Y-118574819D01*
X102148571Y-118574819D02*
X102386666Y-118574819D01*
X102386666Y-118574819D02*
X102529523Y-118622438D01*
X103291428Y-119051009D02*
X103434285Y-119098628D01*
X103434285Y-119098628D02*
X103481904Y-119146247D01*
X103481904Y-119146247D02*
X103529523Y-119241485D01*
X103529523Y-119241485D02*
X103529523Y-119384342D01*
X103529523Y-119384342D02*
X103481904Y-119479580D01*
X103481904Y-119479580D02*
X103434285Y-119527200D01*
X103434285Y-119527200D02*
X103339047Y-119574819D01*
X103339047Y-119574819D02*
X102958095Y-119574819D01*
X102958095Y-119574819D02*
X102958095Y-118574819D01*
X102958095Y-118574819D02*
X103291428Y-118574819D01*
X103291428Y-118574819D02*
X103386666Y-118622438D01*
X103386666Y-118622438D02*
X103434285Y-118670057D01*
X103434285Y-118670057D02*
X103481904Y-118765295D01*
X103481904Y-118765295D02*
X103481904Y-118860533D01*
X103481904Y-118860533D02*
X103434285Y-118955771D01*
X103434285Y-118955771D02*
X103386666Y-119003390D01*
X103386666Y-119003390D02*
X103291428Y-119051009D01*
X103291428Y-119051009D02*
X102958095Y-119051009D01*
X121680833Y-112214819D02*
X121347500Y-111738628D01*
X121109405Y-112214819D02*
X121109405Y-111214819D01*
X121109405Y-111214819D02*
X121490357Y-111214819D01*
X121490357Y-111214819D02*
X121585595Y-111262438D01*
X121585595Y-111262438D02*
X121633214Y-111310057D01*
X121633214Y-111310057D02*
X121680833Y-111405295D01*
X121680833Y-111405295D02*
X121680833Y-111548152D01*
X121680833Y-111548152D02*
X121633214Y-111643390D01*
X121633214Y-111643390D02*
X121585595Y-111691009D01*
X121585595Y-111691009D02*
X121490357Y-111738628D01*
X121490357Y-111738628D02*
X121109405Y-111738628D01*
X122537976Y-111548152D02*
X122537976Y-112214819D01*
X122299881Y-111167200D02*
X122061786Y-111881485D01*
X122061786Y-111881485D02*
X122680833Y-111881485D01*
X112320595Y-110264819D02*
X112320595Y-111074342D01*
X112320595Y-111074342D02*
X112368214Y-111169580D01*
X112368214Y-111169580D02*
X112415833Y-111217200D01*
X112415833Y-111217200D02*
X112511071Y-111264819D01*
X112511071Y-111264819D02*
X112701547Y-111264819D01*
X112701547Y-111264819D02*
X112796785Y-111217200D01*
X112796785Y-111217200D02*
X112844404Y-111169580D01*
X112844404Y-111169580D02*
X112892023Y-111074342D01*
X112892023Y-111074342D02*
X112892023Y-110264819D01*
X113320595Y-110360057D02*
X113368214Y-110312438D01*
X113368214Y-110312438D02*
X113463452Y-110264819D01*
X113463452Y-110264819D02*
X113701547Y-110264819D01*
X113701547Y-110264819D02*
X113796785Y-110312438D01*
X113796785Y-110312438D02*
X113844404Y-110360057D01*
X113844404Y-110360057D02*
X113892023Y-110455295D01*
X113892023Y-110455295D02*
X113892023Y-110550533D01*
X113892023Y-110550533D02*
X113844404Y-110693390D01*
X113844404Y-110693390D02*
X113272976Y-111264819D01*
X113272976Y-111264819D02*
X113892023Y-111264819D01*
X106419580Y-117466666D02*
X106467200Y-117514285D01*
X106467200Y-117514285D02*
X106514819Y-117657142D01*
X106514819Y-117657142D02*
X106514819Y-117752380D01*
X106514819Y-117752380D02*
X106467200Y-117895237D01*
X106467200Y-117895237D02*
X106371961Y-117990475D01*
X106371961Y-117990475D02*
X106276723Y-118038094D01*
X106276723Y-118038094D02*
X106086247Y-118085713D01*
X106086247Y-118085713D02*
X105943390Y-118085713D01*
X105943390Y-118085713D02*
X105752914Y-118038094D01*
X105752914Y-118038094D02*
X105657676Y-117990475D01*
X105657676Y-117990475D02*
X105562438Y-117895237D01*
X105562438Y-117895237D02*
X105514819Y-117752380D01*
X105514819Y-117752380D02*
X105514819Y-117657142D01*
X105514819Y-117657142D02*
X105562438Y-117514285D01*
X105562438Y-117514285D02*
X105610057Y-117466666D01*
X106514819Y-116514285D02*
X106514819Y-117085713D01*
X106514819Y-116799999D02*
X105514819Y-116799999D01*
X105514819Y-116799999D02*
X105657676Y-116895237D01*
X105657676Y-116895237D02*
X105752914Y-116990475D01*
X105752914Y-116990475D02*
X105800533Y-117085713D01*
X125761905Y-103964819D02*
X125761905Y-102964819D01*
X125761905Y-102964819D02*
X126000000Y-102964819D01*
X126000000Y-102964819D02*
X126142857Y-103012438D01*
X126142857Y-103012438D02*
X126238095Y-103107676D01*
X126238095Y-103107676D02*
X126285714Y-103202914D01*
X126285714Y-103202914D02*
X126333333Y-103393390D01*
X126333333Y-103393390D02*
X126333333Y-103536247D01*
X126333333Y-103536247D02*
X126285714Y-103726723D01*
X126285714Y-103726723D02*
X126238095Y-103821961D01*
X126238095Y-103821961D02*
X126142857Y-103917200D01*
X126142857Y-103917200D02*
X126000000Y-103964819D01*
X126000000Y-103964819D02*
X125761905Y-103964819D01*
X127190476Y-103298152D02*
X127190476Y-103964819D01*
X126952381Y-102917200D02*
X126714286Y-103631485D01*
X126714286Y-103631485D02*
X127333333Y-103631485D01*
X131673333Y-114134819D02*
X131340000Y-113658628D01*
X131101905Y-114134819D02*
X131101905Y-113134819D01*
X131101905Y-113134819D02*
X131482857Y-113134819D01*
X131482857Y-113134819D02*
X131578095Y-113182438D01*
X131578095Y-113182438D02*
X131625714Y-113230057D01*
X131625714Y-113230057D02*
X131673333Y-113325295D01*
X131673333Y-113325295D02*
X131673333Y-113468152D01*
X131673333Y-113468152D02*
X131625714Y-113563390D01*
X131625714Y-113563390D02*
X131578095Y-113611009D01*
X131578095Y-113611009D02*
X131482857Y-113658628D01*
X131482857Y-113658628D02*
X131101905Y-113658628D01*
X132244762Y-113563390D02*
X132149524Y-113515771D01*
X132149524Y-113515771D02*
X132101905Y-113468152D01*
X132101905Y-113468152D02*
X132054286Y-113372914D01*
X132054286Y-113372914D02*
X132054286Y-113325295D01*
X132054286Y-113325295D02*
X132101905Y-113230057D01*
X132101905Y-113230057D02*
X132149524Y-113182438D01*
X132149524Y-113182438D02*
X132244762Y-113134819D01*
X132244762Y-113134819D02*
X132435238Y-113134819D01*
X132435238Y-113134819D02*
X132530476Y-113182438D01*
X132530476Y-113182438D02*
X132578095Y-113230057D01*
X132578095Y-113230057D02*
X132625714Y-113325295D01*
X132625714Y-113325295D02*
X132625714Y-113372914D01*
X132625714Y-113372914D02*
X132578095Y-113468152D01*
X132578095Y-113468152D02*
X132530476Y-113515771D01*
X132530476Y-113515771D02*
X132435238Y-113563390D01*
X132435238Y-113563390D02*
X132244762Y-113563390D01*
X132244762Y-113563390D02*
X132149524Y-113611009D01*
X132149524Y-113611009D02*
X132101905Y-113658628D01*
X132101905Y-113658628D02*
X132054286Y-113753866D01*
X132054286Y-113753866D02*
X132054286Y-113944342D01*
X132054286Y-113944342D02*
X132101905Y-114039580D01*
X132101905Y-114039580D02*
X132149524Y-114087200D01*
X132149524Y-114087200D02*
X132244762Y-114134819D01*
X132244762Y-114134819D02*
X132435238Y-114134819D01*
X132435238Y-114134819D02*
X132530476Y-114087200D01*
X132530476Y-114087200D02*
X132578095Y-114039580D01*
X132578095Y-114039580D02*
X132625714Y-113944342D01*
X132625714Y-113944342D02*
X132625714Y-113753866D01*
X132625714Y-113753866D02*
X132578095Y-113658628D01*
X132578095Y-113658628D02*
X132530476Y-113611009D01*
X132530476Y-113611009D02*
X132435238Y-113563390D01*
X130970952Y-112194819D02*
X130494762Y-112194819D01*
X130494762Y-112194819D02*
X130494762Y-111194819D01*
X131304286Y-111671009D02*
X131637619Y-111671009D01*
X131780476Y-112194819D02*
X131304286Y-112194819D01*
X131304286Y-112194819D02*
X131304286Y-111194819D01*
X131304286Y-111194819D02*
X131780476Y-111194819D01*
X132209048Y-112194819D02*
X132209048Y-111194819D01*
X132209048Y-111194819D02*
X132447143Y-111194819D01*
X132447143Y-111194819D02*
X132590000Y-111242438D01*
X132590000Y-111242438D02*
X132685238Y-111337676D01*
X132685238Y-111337676D02*
X132732857Y-111432914D01*
X132732857Y-111432914D02*
X132780476Y-111623390D01*
X132780476Y-111623390D02*
X132780476Y-111766247D01*
X132780476Y-111766247D02*
X132732857Y-111956723D01*
X132732857Y-111956723D02*
X132685238Y-112051961D01*
X132685238Y-112051961D02*
X132590000Y-112147200D01*
X132590000Y-112147200D02*
X132447143Y-112194819D01*
X132447143Y-112194819D02*
X132209048Y-112194819D01*
X133161429Y-111290057D02*
X133209048Y-111242438D01*
X133209048Y-111242438D02*
X133304286Y-111194819D01*
X133304286Y-111194819D02*
X133542381Y-111194819D01*
X133542381Y-111194819D02*
X133637619Y-111242438D01*
X133637619Y-111242438D02*
X133685238Y-111290057D01*
X133685238Y-111290057D02*
X133732857Y-111385295D01*
X133732857Y-111385295D02*
X133732857Y-111480533D01*
X133732857Y-111480533D02*
X133685238Y-111623390D01*
X133685238Y-111623390D02*
X133113810Y-112194819D01*
X133113810Y-112194819D02*
X133732857Y-112194819D01*
X135586666Y-106714819D02*
X135586666Y-107429104D01*
X135586666Y-107429104D02*
X135539047Y-107571961D01*
X135539047Y-107571961D02*
X135443809Y-107667200D01*
X135443809Y-107667200D02*
X135300952Y-107714819D01*
X135300952Y-107714819D02*
X135205714Y-107714819D01*
X136586666Y-107714819D02*
X136015238Y-107714819D01*
X136300952Y-107714819D02*
X136300952Y-106714819D01*
X136300952Y-106714819D02*
X136205714Y-106857676D01*
X136205714Y-106857676D02*
X136110476Y-106952914D01*
X136110476Y-106952914D02*
X136015238Y-107000533D01*
X134356191Y-116884819D02*
X134356191Y-117694342D01*
X134356191Y-117694342D02*
X134403810Y-117789580D01*
X134403810Y-117789580D02*
X134451429Y-117837200D01*
X134451429Y-117837200D02*
X134546667Y-117884819D01*
X134546667Y-117884819D02*
X134737143Y-117884819D01*
X134737143Y-117884819D02*
X134832381Y-117837200D01*
X134832381Y-117837200D02*
X134880000Y-117789580D01*
X134880000Y-117789580D02*
X134927619Y-117694342D01*
X134927619Y-117694342D02*
X134927619Y-116884819D01*
X135403810Y-117884819D02*
X135403810Y-116884819D01*
X135403810Y-116884819D02*
X135784762Y-116884819D01*
X135784762Y-116884819D02*
X135880000Y-116932438D01*
X135880000Y-116932438D02*
X135927619Y-116980057D01*
X135927619Y-116980057D02*
X135975238Y-117075295D01*
X135975238Y-117075295D02*
X135975238Y-117218152D01*
X135975238Y-117218152D02*
X135927619Y-117313390D01*
X135927619Y-117313390D02*
X135880000Y-117361009D01*
X135880000Y-117361009D02*
X135784762Y-117408628D01*
X135784762Y-117408628D02*
X135403810Y-117408628D01*
X136403810Y-117884819D02*
X136403810Y-116884819D01*
X136403810Y-116884819D02*
X136641905Y-116884819D01*
X136641905Y-116884819D02*
X136784762Y-116932438D01*
X136784762Y-116932438D02*
X136880000Y-117027676D01*
X136880000Y-117027676D02*
X136927619Y-117122914D01*
X136927619Y-117122914D02*
X136975238Y-117313390D01*
X136975238Y-117313390D02*
X136975238Y-117456247D01*
X136975238Y-117456247D02*
X136927619Y-117646723D01*
X136927619Y-117646723D02*
X136880000Y-117741961D01*
X136880000Y-117741961D02*
X136784762Y-117837200D01*
X136784762Y-117837200D02*
X136641905Y-117884819D01*
X136641905Y-117884819D02*
X136403810Y-117884819D01*
X137403810Y-117884819D02*
X137403810Y-116884819D01*
X107219580Y-108906666D02*
X107267200Y-108954285D01*
X107267200Y-108954285D02*
X107314819Y-109097142D01*
X107314819Y-109097142D02*
X107314819Y-109192380D01*
X107314819Y-109192380D02*
X107267200Y-109335237D01*
X107267200Y-109335237D02*
X107171961Y-109430475D01*
X107171961Y-109430475D02*
X107076723Y-109478094D01*
X107076723Y-109478094D02*
X106886247Y-109525713D01*
X106886247Y-109525713D02*
X106743390Y-109525713D01*
X106743390Y-109525713D02*
X106552914Y-109478094D01*
X106552914Y-109478094D02*
X106457676Y-109430475D01*
X106457676Y-109430475D02*
X106362438Y-109335237D01*
X106362438Y-109335237D02*
X106314819Y-109192380D01*
X106314819Y-109192380D02*
X106314819Y-109097142D01*
X106314819Y-109097142D02*
X106362438Y-108954285D01*
X106362438Y-108954285D02*
X106410057Y-108906666D01*
X106314819Y-108573332D02*
X106314819Y-107954285D01*
X106314819Y-107954285D02*
X106695771Y-108287618D01*
X106695771Y-108287618D02*
X106695771Y-108144761D01*
X106695771Y-108144761D02*
X106743390Y-108049523D01*
X106743390Y-108049523D02*
X106791009Y-108001904D01*
X106791009Y-108001904D02*
X106886247Y-107954285D01*
X106886247Y-107954285D02*
X107124342Y-107954285D01*
X107124342Y-107954285D02*
X107219580Y-108001904D01*
X107219580Y-108001904D02*
X107267200Y-108049523D01*
X107267200Y-108049523D02*
X107314819Y-108144761D01*
X107314819Y-108144761D02*
X107314819Y-108430475D01*
X107314819Y-108430475D02*
X107267200Y-108525713D01*
X107267200Y-108525713D02*
X107219580Y-108573332D01*
X125701905Y-116044819D02*
X125701905Y-115044819D01*
X125701905Y-115044819D02*
X125940000Y-115044819D01*
X125940000Y-115044819D02*
X126082857Y-115092438D01*
X126082857Y-115092438D02*
X126178095Y-115187676D01*
X126178095Y-115187676D02*
X126225714Y-115282914D01*
X126225714Y-115282914D02*
X126273333Y-115473390D01*
X126273333Y-115473390D02*
X126273333Y-115616247D01*
X126273333Y-115616247D02*
X126225714Y-115806723D01*
X126225714Y-115806723D02*
X126178095Y-115901961D01*
X126178095Y-115901961D02*
X126082857Y-115997200D01*
X126082857Y-115997200D02*
X125940000Y-116044819D01*
X125940000Y-116044819D02*
X125701905Y-116044819D01*
X126606667Y-115044819D02*
X127225714Y-115044819D01*
X127225714Y-115044819D02*
X126892381Y-115425771D01*
X126892381Y-115425771D02*
X127035238Y-115425771D01*
X127035238Y-115425771D02*
X127130476Y-115473390D01*
X127130476Y-115473390D02*
X127178095Y-115521009D01*
X127178095Y-115521009D02*
X127225714Y-115616247D01*
X127225714Y-115616247D02*
X127225714Y-115854342D01*
X127225714Y-115854342D02*
X127178095Y-115949580D01*
X127178095Y-115949580D02*
X127130476Y-115997200D01*
X127130476Y-115997200D02*
X127035238Y-116044819D01*
X127035238Y-116044819D02*
X126749524Y-116044819D01*
X126749524Y-116044819D02*
X126654286Y-115997200D01*
X126654286Y-115997200D02*
X126606667Y-115949580D01*
X114388095Y-104204819D02*
X114388095Y-105014342D01*
X114388095Y-105014342D02*
X114435714Y-105109580D01*
X114435714Y-105109580D02*
X114483333Y-105157200D01*
X114483333Y-105157200D02*
X114578571Y-105204819D01*
X114578571Y-105204819D02*
X114769047Y-105204819D01*
X114769047Y-105204819D02*
X114864285Y-105157200D01*
X114864285Y-105157200D02*
X114911904Y-105109580D01*
X114911904Y-105109580D02*
X114959523Y-105014342D01*
X114959523Y-105014342D02*
X114959523Y-104204819D01*
X115959523Y-105204819D02*
X115388095Y-105204819D01*
X115673809Y-105204819D02*
X115673809Y-104204819D01*
X115673809Y-104204819D02*
X115578571Y-104347676D01*
X115578571Y-104347676D02*
X115483333Y-104442914D01*
X115483333Y-104442914D02*
X115388095Y-104490533D01*
X120533333Y-115519580D02*
X120485714Y-115567200D01*
X120485714Y-115567200D02*
X120342857Y-115614819D01*
X120342857Y-115614819D02*
X120247619Y-115614819D01*
X120247619Y-115614819D02*
X120104762Y-115567200D01*
X120104762Y-115567200D02*
X120009524Y-115471961D01*
X120009524Y-115471961D02*
X119961905Y-115376723D01*
X119961905Y-115376723D02*
X119914286Y-115186247D01*
X119914286Y-115186247D02*
X119914286Y-115043390D01*
X119914286Y-115043390D02*
X119961905Y-114852914D01*
X119961905Y-114852914D02*
X120009524Y-114757676D01*
X120009524Y-114757676D02*
X120104762Y-114662438D01*
X120104762Y-114662438D02*
X120247619Y-114614819D01*
X120247619Y-114614819D02*
X120342857Y-114614819D01*
X120342857Y-114614819D02*
X120485714Y-114662438D01*
X120485714Y-114662438D02*
X120533333Y-114710057D01*
X121390476Y-114948152D02*
X121390476Y-115614819D01*
X121152381Y-114567200D02*
X120914286Y-115281485D01*
X120914286Y-115281485D02*
X121533333Y-115281485D01*
X112883333Y-116644819D02*
X112407143Y-116644819D01*
X112407143Y-116644819D02*
X112407143Y-115644819D01*
X113740476Y-116644819D02*
X113169048Y-116644819D01*
X113454762Y-116644819D02*
X113454762Y-115644819D01*
X113454762Y-115644819D02*
X113359524Y-115787676D01*
X113359524Y-115787676D02*
X113264286Y-115882914D01*
X113264286Y-115882914D02*
X113169048Y-115930533D01*
X116273333Y-111654819D02*
X115940000Y-111178628D01*
X115701905Y-111654819D02*
X115701905Y-110654819D01*
X115701905Y-110654819D02*
X116082857Y-110654819D01*
X116082857Y-110654819D02*
X116178095Y-110702438D01*
X116178095Y-110702438D02*
X116225714Y-110750057D01*
X116225714Y-110750057D02*
X116273333Y-110845295D01*
X116273333Y-110845295D02*
X116273333Y-110988152D01*
X116273333Y-110988152D02*
X116225714Y-111083390D01*
X116225714Y-111083390D02*
X116178095Y-111131009D01*
X116178095Y-111131009D02*
X116082857Y-111178628D01*
X116082857Y-111178628D02*
X115701905Y-111178628D01*
X116606667Y-110654819D02*
X117225714Y-110654819D01*
X117225714Y-110654819D02*
X116892381Y-111035771D01*
X116892381Y-111035771D02*
X117035238Y-111035771D01*
X117035238Y-111035771D02*
X117130476Y-111083390D01*
X117130476Y-111083390D02*
X117178095Y-111131009D01*
X117178095Y-111131009D02*
X117225714Y-111226247D01*
X117225714Y-111226247D02*
X117225714Y-111464342D01*
X117225714Y-111464342D02*
X117178095Y-111559580D01*
X117178095Y-111559580D02*
X117130476Y-111607200D01*
X117130476Y-111607200D02*
X117035238Y-111654819D01*
X117035238Y-111654819D02*
X116749524Y-111654819D01*
X116749524Y-111654819D02*
X116654286Y-111607200D01*
X116654286Y-111607200D02*
X116606667Y-111559580D01*
X121263333Y-103389580D02*
X121215714Y-103437200D01*
X121215714Y-103437200D02*
X121072857Y-103484819D01*
X121072857Y-103484819D02*
X120977619Y-103484819D01*
X120977619Y-103484819D02*
X120834762Y-103437200D01*
X120834762Y-103437200D02*
X120739524Y-103341961D01*
X120739524Y-103341961D02*
X120691905Y-103246723D01*
X120691905Y-103246723D02*
X120644286Y-103056247D01*
X120644286Y-103056247D02*
X120644286Y-102913390D01*
X120644286Y-102913390D02*
X120691905Y-102722914D01*
X120691905Y-102722914D02*
X120739524Y-102627676D01*
X120739524Y-102627676D02*
X120834762Y-102532438D01*
X120834762Y-102532438D02*
X120977619Y-102484819D01*
X120977619Y-102484819D02*
X121072857Y-102484819D01*
X121072857Y-102484819D02*
X121215714Y-102532438D01*
X121215714Y-102532438D02*
X121263333Y-102580057D01*
X122120476Y-102484819D02*
X121930000Y-102484819D01*
X121930000Y-102484819D02*
X121834762Y-102532438D01*
X121834762Y-102532438D02*
X121787143Y-102580057D01*
X121787143Y-102580057D02*
X121691905Y-102722914D01*
X121691905Y-102722914D02*
X121644286Y-102913390D01*
X121644286Y-102913390D02*
X121644286Y-103294342D01*
X121644286Y-103294342D02*
X121691905Y-103389580D01*
X121691905Y-103389580D02*
X121739524Y-103437200D01*
X121739524Y-103437200D02*
X121834762Y-103484819D01*
X121834762Y-103484819D02*
X122025238Y-103484819D01*
X122025238Y-103484819D02*
X122120476Y-103437200D01*
X122120476Y-103437200D02*
X122168095Y-103389580D01*
X122168095Y-103389580D02*
X122215714Y-103294342D01*
X122215714Y-103294342D02*
X122215714Y-103056247D01*
X122215714Y-103056247D02*
X122168095Y-102961009D01*
X122168095Y-102961009D02*
X122120476Y-102913390D01*
X122120476Y-102913390D02*
X122025238Y-102865771D01*
X122025238Y-102865771D02*
X121834762Y-102865771D01*
X121834762Y-102865771D02*
X121739524Y-102913390D01*
X121739524Y-102913390D02*
X121691905Y-102961009D01*
X121691905Y-102961009D02*
X121644286Y-103056247D01*
X117603333Y-115519580D02*
X117555714Y-115567200D01*
X117555714Y-115567200D02*
X117412857Y-115614819D01*
X117412857Y-115614819D02*
X117317619Y-115614819D01*
X117317619Y-115614819D02*
X117174762Y-115567200D01*
X117174762Y-115567200D02*
X117079524Y-115471961D01*
X117079524Y-115471961D02*
X117031905Y-115376723D01*
X117031905Y-115376723D02*
X116984286Y-115186247D01*
X116984286Y-115186247D02*
X116984286Y-115043390D01*
X116984286Y-115043390D02*
X117031905Y-114852914D01*
X117031905Y-114852914D02*
X117079524Y-114757676D01*
X117079524Y-114757676D02*
X117174762Y-114662438D01*
X117174762Y-114662438D02*
X117317619Y-114614819D01*
X117317619Y-114614819D02*
X117412857Y-114614819D01*
X117412857Y-114614819D02*
X117555714Y-114662438D01*
X117555714Y-114662438D02*
X117603333Y-114710057D01*
X118508095Y-114614819D02*
X118031905Y-114614819D01*
X118031905Y-114614819D02*
X117984286Y-115091009D01*
X117984286Y-115091009D02*
X118031905Y-115043390D01*
X118031905Y-115043390D02*
X118127143Y-114995771D01*
X118127143Y-114995771D02*
X118365238Y-114995771D01*
X118365238Y-114995771D02*
X118460476Y-115043390D01*
X118460476Y-115043390D02*
X118508095Y-115091009D01*
X118508095Y-115091009D02*
X118555714Y-115186247D01*
X118555714Y-115186247D02*
X118555714Y-115424342D01*
X118555714Y-115424342D02*
X118508095Y-115519580D01*
X118508095Y-115519580D02*
X118460476Y-115567200D01*
X118460476Y-115567200D02*
X118365238Y-115614819D01*
X118365238Y-115614819D02*
X118127143Y-115614819D01*
X118127143Y-115614819D02*
X118031905Y-115567200D01*
X118031905Y-115567200D02*
X117984286Y-115519580D01*
X131000952Y-109684819D02*
X130524762Y-109684819D01*
X130524762Y-109684819D02*
X130524762Y-108684819D01*
X131334286Y-109161009D02*
X131667619Y-109161009D01*
X131810476Y-109684819D02*
X131334286Y-109684819D01*
X131334286Y-109684819D02*
X131334286Y-108684819D01*
X131334286Y-108684819D02*
X131810476Y-108684819D01*
X132239048Y-109684819D02*
X132239048Y-108684819D01*
X132239048Y-108684819D02*
X132477143Y-108684819D01*
X132477143Y-108684819D02*
X132620000Y-108732438D01*
X132620000Y-108732438D02*
X132715238Y-108827676D01*
X132715238Y-108827676D02*
X132762857Y-108922914D01*
X132762857Y-108922914D02*
X132810476Y-109113390D01*
X132810476Y-109113390D02*
X132810476Y-109256247D01*
X132810476Y-109256247D02*
X132762857Y-109446723D01*
X132762857Y-109446723D02*
X132715238Y-109541961D01*
X132715238Y-109541961D02*
X132620000Y-109637200D01*
X132620000Y-109637200D02*
X132477143Y-109684819D01*
X132477143Y-109684819D02*
X132239048Y-109684819D01*
X133762857Y-109684819D02*
X133191429Y-109684819D01*
X133477143Y-109684819D02*
X133477143Y-108684819D01*
X133477143Y-108684819D02*
X133381905Y-108827676D01*
X133381905Y-108827676D02*
X133286667Y-108922914D01*
X133286667Y-108922914D02*
X133191429Y-108970533D01*
X113586666Y-119594819D02*
X113586666Y-120309104D01*
X113586666Y-120309104D02*
X113539047Y-120451961D01*
X113539047Y-120451961D02*
X113443809Y-120547200D01*
X113443809Y-120547200D02*
X113300952Y-120594819D01*
X113300952Y-120594819D02*
X113205714Y-120594819D01*
X113967619Y-119594819D02*
X114586666Y-119594819D01*
X114586666Y-119594819D02*
X114253333Y-119975771D01*
X114253333Y-119975771D02*
X114396190Y-119975771D01*
X114396190Y-119975771D02*
X114491428Y-120023390D01*
X114491428Y-120023390D02*
X114539047Y-120071009D01*
X114539047Y-120071009D02*
X114586666Y-120166247D01*
X114586666Y-120166247D02*
X114586666Y-120404342D01*
X114586666Y-120404342D02*
X114539047Y-120499580D01*
X114539047Y-120499580D02*
X114491428Y-120547200D01*
X114491428Y-120547200D02*
X114396190Y-120594819D01*
X114396190Y-120594819D02*
X114110476Y-120594819D01*
X114110476Y-120594819D02*
X114015238Y-120547200D01*
X114015238Y-120547200D02*
X113967619Y-120499580D01*
X110242857Y-120527200D02*
X110385714Y-120574819D01*
X110385714Y-120574819D02*
X110623809Y-120574819D01*
X110623809Y-120574819D02*
X110719047Y-120527200D01*
X110719047Y-120527200D02*
X110766666Y-120479580D01*
X110766666Y-120479580D02*
X110814285Y-120384342D01*
X110814285Y-120384342D02*
X110814285Y-120289104D01*
X110814285Y-120289104D02*
X110766666Y-120193866D01*
X110766666Y-120193866D02*
X110719047Y-120146247D01*
X110719047Y-120146247D02*
X110623809Y-120098628D01*
X110623809Y-120098628D02*
X110433333Y-120051009D01*
X110433333Y-120051009D02*
X110338095Y-120003390D01*
X110338095Y-120003390D02*
X110290476Y-119955771D01*
X110290476Y-119955771D02*
X110242857Y-119860533D01*
X110242857Y-119860533D02*
X110242857Y-119765295D01*
X110242857Y-119765295D02*
X110290476Y-119670057D01*
X110290476Y-119670057D02*
X110338095Y-119622438D01*
X110338095Y-119622438D02*
X110433333Y-119574819D01*
X110433333Y-119574819D02*
X110671428Y-119574819D01*
X110671428Y-119574819D02*
X110814285Y-119622438D01*
X111147619Y-119574819D02*
X111385714Y-120574819D01*
X111385714Y-120574819D02*
X111576190Y-119860533D01*
X111576190Y-119860533D02*
X111766666Y-120574819D01*
X111766666Y-120574819D02*
X112004762Y-119574819D01*
X116313333Y-113834819D02*
X115980000Y-113358628D01*
X115741905Y-113834819D02*
X115741905Y-112834819D01*
X115741905Y-112834819D02*
X116122857Y-112834819D01*
X116122857Y-112834819D02*
X116218095Y-112882438D01*
X116218095Y-112882438D02*
X116265714Y-112930057D01*
X116265714Y-112930057D02*
X116313333Y-113025295D01*
X116313333Y-113025295D02*
X116313333Y-113168152D01*
X116313333Y-113168152D02*
X116265714Y-113263390D01*
X116265714Y-113263390D02*
X116218095Y-113311009D01*
X116218095Y-113311009D02*
X116122857Y-113358628D01*
X116122857Y-113358628D02*
X115741905Y-113358628D01*
X116694286Y-112930057D02*
X116741905Y-112882438D01*
X116741905Y-112882438D02*
X116837143Y-112834819D01*
X116837143Y-112834819D02*
X117075238Y-112834819D01*
X117075238Y-112834819D02*
X117170476Y-112882438D01*
X117170476Y-112882438D02*
X117218095Y-112930057D01*
X117218095Y-112930057D02*
X117265714Y-113025295D01*
X117265714Y-113025295D02*
X117265714Y-113120533D01*
X117265714Y-113120533D02*
X117218095Y-113263390D01*
X117218095Y-113263390D02*
X116646667Y-113834819D01*
X116646667Y-113834819D02*
X117265714Y-113834819D01*
X107893333Y-103569580D02*
X107845714Y-103617200D01*
X107845714Y-103617200D02*
X107702857Y-103664819D01*
X107702857Y-103664819D02*
X107607619Y-103664819D01*
X107607619Y-103664819D02*
X107464762Y-103617200D01*
X107464762Y-103617200D02*
X107369524Y-103521961D01*
X107369524Y-103521961D02*
X107321905Y-103426723D01*
X107321905Y-103426723D02*
X107274286Y-103236247D01*
X107274286Y-103236247D02*
X107274286Y-103093390D01*
X107274286Y-103093390D02*
X107321905Y-102902914D01*
X107321905Y-102902914D02*
X107369524Y-102807676D01*
X107369524Y-102807676D02*
X107464762Y-102712438D01*
X107464762Y-102712438D02*
X107607619Y-102664819D01*
X107607619Y-102664819D02*
X107702857Y-102664819D01*
X107702857Y-102664819D02*
X107845714Y-102712438D01*
X107845714Y-102712438D02*
X107893333Y-102760057D01*
X108274286Y-102760057D02*
X108321905Y-102712438D01*
X108321905Y-102712438D02*
X108417143Y-102664819D01*
X108417143Y-102664819D02*
X108655238Y-102664819D01*
X108655238Y-102664819D02*
X108750476Y-102712438D01*
X108750476Y-102712438D02*
X108798095Y-102760057D01*
X108798095Y-102760057D02*
X108845714Y-102855295D01*
X108845714Y-102855295D02*
X108845714Y-102950533D01*
X108845714Y-102950533D02*
X108798095Y-103093390D01*
X108798095Y-103093390D02*
X108226667Y-103664819D01*
X108226667Y-103664819D02*
X108845714Y-103664819D01*
X121620833Y-109654819D02*
X121287500Y-109178628D01*
X121049405Y-109654819D02*
X121049405Y-108654819D01*
X121049405Y-108654819D02*
X121430357Y-108654819D01*
X121430357Y-108654819D02*
X121525595Y-108702438D01*
X121525595Y-108702438D02*
X121573214Y-108750057D01*
X121573214Y-108750057D02*
X121620833Y-108845295D01*
X121620833Y-108845295D02*
X121620833Y-108988152D01*
X121620833Y-108988152D02*
X121573214Y-109083390D01*
X121573214Y-109083390D02*
X121525595Y-109131009D01*
X121525595Y-109131009D02*
X121430357Y-109178628D01*
X121430357Y-109178628D02*
X121049405Y-109178628D01*
X122573214Y-109654819D02*
X122001786Y-109654819D01*
X122287500Y-109654819D02*
X122287500Y-108654819D01*
X122287500Y-108654819D02*
X122192262Y-108797676D01*
X122192262Y-108797676D02*
X122097024Y-108892914D01*
X122097024Y-108892914D02*
X122001786Y-108940533D01*
D13*
%TO.C,J2*%
X100860000Y-107240000D02*
X102190000Y-107240000D01*
X100860000Y-108570000D02*
X100860000Y-107240000D01*
X100860000Y-109840000D02*
X100860000Y-117520000D01*
X100860000Y-109840000D02*
X103520000Y-109840000D01*
X100860000Y-117520000D02*
X103520000Y-117520000D01*
X103520000Y-109840000D02*
X103520000Y-117520000D01*
%TO.C,R4*%
X124320436Y-110945000D02*
X124774564Y-110945000D01*
X124320436Y-112415000D02*
X124774564Y-112415000D01*
%TO.C,U2*%
X113082500Y-111650000D02*
X111282500Y-111650000D01*
X113082500Y-111650000D02*
X113882500Y-111650000D01*
X113082500Y-114770000D02*
X112282500Y-114770000D01*
X113082500Y-114770000D02*
X113882500Y-114770000D01*
%TO.C,C1*%
X107000000Y-118011252D02*
X107000000Y-116588748D01*
X108820000Y-118011252D02*
X108820000Y-116588748D01*
%TO.C,D4*%
X123040000Y-104400000D02*
X123040000Y-107700000D01*
X123040000Y-104400000D02*
X128550000Y-104400000D01*
X123040000Y-107700000D02*
X128550000Y-107700000D01*
%TO.C,R8*%
X131740436Y-114595000D02*
X132194564Y-114595000D01*
X131740436Y-116065000D02*
X132194564Y-116065000D01*
%TO.C,LED2*%
X130202500Y-112610000D02*
X130202500Y-110690000D01*
X130202500Y-110690000D02*
X127517500Y-110690000D01*
X127517500Y-112610000D02*
X130202500Y-112610000D01*
%TO.C,J1*%
X134550000Y-108495000D02*
X135880000Y-108495000D01*
X134550000Y-109825000D02*
X134550000Y-108495000D01*
X134550000Y-111095000D02*
X134550000Y-116235000D01*
X134550000Y-111095000D02*
X137210000Y-111095000D01*
X134550000Y-116235000D02*
X137210000Y-116235000D01*
X137210000Y-111095000D02*
X137210000Y-116235000D01*
%TO.C,C3*%
X109600000Y-108028748D02*
X109600000Y-109451252D01*
X107780000Y-108028748D02*
X107780000Y-109451252D01*
%TO.C,D3*%
X123162500Y-116470000D02*
X123162500Y-119770000D01*
X123162500Y-116470000D02*
X128672500Y-116470000D01*
X123162500Y-119770000D02*
X128672500Y-119770000D01*
D12*
%TO.C,U1*%
X113475000Y-105675000D02*
X113475000Y-105900000D01*
X113475000Y-105675000D02*
X116825000Y-105675000D01*
X113475000Y-105900000D02*
X112250000Y-105900000D01*
X113475000Y-109025000D02*
X113475000Y-108725000D01*
X113475000Y-109025000D02*
X116825000Y-109025000D01*
X116825000Y-105675000D02*
X116825000Y-105975000D01*
X116825000Y-109025000D02*
X116825000Y-108725000D01*
D13*
%TO.C,C4*%
X119850000Y-118961252D02*
X119850000Y-117538748D01*
X121670000Y-118961252D02*
X121670000Y-117538748D01*
%TO.C,L1*%
X112324758Y-117290000D02*
X113995242Y-117290000D01*
X112324758Y-119110000D02*
X113995242Y-119110000D01*
%TO.C,R3*%
X119042936Y-110405000D02*
X119497064Y-110405000D01*
X119042936Y-111875000D02*
X119497064Y-111875000D01*
%TO.C,C6*%
X118771252Y-104040000D02*
X117348748Y-104040000D01*
X118771252Y-102220000D02*
X117348748Y-102220000D01*
%TO.C,C5*%
X116970000Y-118961252D02*
X116970000Y-117538748D01*
X118790000Y-118961252D02*
X118790000Y-117538748D01*
%TO.C,LED1*%
X130202500Y-110180000D02*
X130202500Y-108260000D01*
X130202500Y-108260000D02*
X127517500Y-108260000D01*
X127517500Y-110180000D02*
X130202500Y-110180000D01*
%TO.C,J3*%
X116505000Y-121230000D02*
X116505000Y-122560000D01*
X115175000Y-121230000D02*
X116505000Y-121230000D01*
X113905000Y-121230000D02*
X108765000Y-121230000D01*
X113905000Y-121230000D02*
X113905000Y-123890000D01*
X108765000Y-121230000D02*
X108765000Y-123890000D01*
X113905000Y-123890000D02*
X108765000Y-123890000D01*
%TO.C,R2*%
X119032936Y-112665000D02*
X119487064Y-112665000D01*
X119032936Y-114135000D02*
X119487064Y-114135000D01*
%TO.C,C2*%
X110698748Y-102220000D02*
X112121252Y-102220000D01*
X110698748Y-104040000D02*
X112121252Y-104040000D01*
%TO.C,R1*%
X124370436Y-108475000D02*
X124824564Y-108475000D01*
X124370436Y-109945000D02*
X124824564Y-109945000D01*
%TD*%
D14*
X123402500Y-118290000D03*
X108260000Y-119110000D03*
X132610000Y-117740000D03*
X135010000Y-119560000D03*
X132800000Y-111570000D03*
X116110000Y-115220000D03*
X133550000Y-123750000D03*
X104580000Y-104740000D03*
X104590000Y-117440000D03*
X125800000Y-114150000D03*
X121000000Y-112320000D03*
X127480000Y-107740000D03*
X129990000Y-103280000D03*
X106040000Y-103280000D03*
X110270000Y-114560000D03*
X104600000Y-101820000D03*
X107410000Y-120320000D03*
X104600000Y-121640000D03*
X111790000Y-111000000D03*
X129430000Y-113830000D03*
X132890000Y-106120000D03*
X133610000Y-121000000D03*
X131430000Y-104720000D03*
X103090000Y-120220000D03*
X122100000Y-106430000D03*
X114730000Y-103150000D03*
X113180000Y-109830000D03*
X108730000Y-107270000D03*
X110260000Y-112380000D03*
X122750000Y-109600000D03*
X119535000Y-103130000D03*
X117350000Y-110020000D03*
X117880000Y-119725000D03*
X123960000Y-114850000D03*
X106060000Y-116400000D03*
X113502329Y-111389128D03*
X120240000Y-109660000D03*
X102190000Y-108570000D03*
X102190000Y-111110000D03*
X102190000Y-113650000D03*
X102190000Y-116190000D03*
X135880000Y-109825000D03*
X135880000Y-112365000D03*
X135880000Y-114905000D03*
X115175000Y-122560000D03*
X112635000Y-122560000D03*
X110095000Y-122560000D03*
M02*
