%TF.GenerationSoftware,KiCad,Pcbnew,7.0.7-7.0.7~ubuntu22.04.1*%
%TF.CreationDate,2023-08-23T16:26:45+03:00*%
%TF.ProjectId,updi_hv_reset,75706469-5f68-4765-9f72-657365742e6b,rev?*%
%TF.SameCoordinates,Original*%
%TF.FileFunction,Soldermask,Top*%
%TF.FilePolarity,Negative*%
%FSLAX46Y46*%
G04 Gerber Fmt 4.6, Leading zero omitted, Abs format (unit mm)*
G04 Created by KiCad (PCBNEW 7.0.7-7.0.7~ubuntu22.04.1) date 2023-08-23 16:26:45*
%MOMM*%
%LPD*%
G01*
G04 APERTURE LIST*
G04 Aperture macros list*
%AMRoundRect*
0 Rectangle with rounded corners*
0 $1 Rounding radius*
0 $2 $3 $4 $5 $6 $7 $8 $9 X,Y pos of 4 corners*
0 Add a 4 corners polygon primitive as box body*
4,1,4,$2,$3,$4,$5,$6,$7,$8,$9,$2,$3,0*
0 Add four circle primitives for the rounded corners*
1,1,$1+$1,$2,$3*
1,1,$1+$1,$4,$5*
1,1,$1+$1,$6,$7*
1,1,$1+$1,$8,$9*
0 Add four rect primitives between the rounded corners*
20,1,$1+$1,$2,$3,$4,$5,0*
20,1,$1+$1,$4,$5,$6,$7,0*
20,1,$1+$1,$6,$7,$8,$9,0*
20,1,$1+$1,$8,$9,$2,$3,0*%
G04 Aperture macros list end*
%ADD10R,1.700000X1.700000*%
%ADD11O,1.700000X1.700000*%
%ADD12RoundRect,0.250000X-0.262500X-0.450000X0.262500X-0.450000X0.262500X0.450000X-0.262500X0.450000X0*%
%ADD13RoundRect,0.150000X-0.512500X-0.150000X0.512500X-0.150000X0.512500X0.150000X-0.512500X0.150000X0*%
%ADD14RoundRect,0.250000X0.650000X-0.325000X0.650000X0.325000X-0.650000X0.325000X-0.650000X-0.325000X0*%
%ADD15RoundRect,0.250000X-1.000000X-0.650000X1.000000X-0.650000X1.000000X0.650000X-1.000000X0.650000X0*%
%ADD16RoundRect,0.243750X0.243750X0.456250X-0.243750X0.456250X-0.243750X-0.456250X0.243750X-0.456250X0*%
%ADD17RoundRect,0.250000X-0.650000X0.325000X-0.650000X-0.325000X0.650000X-0.325000X0.650000X0.325000X0*%
%ADD18R,1.400000X0.300000*%
%ADD19RoundRect,0.250000X-0.275000X-0.700000X0.275000X-0.700000X0.275000X0.700000X-0.275000X0.700000X0*%
%ADD20RoundRect,0.250000X0.325000X0.650000X-0.325000X0.650000X-0.325000X-0.650000X0.325000X-0.650000X0*%
%ADD21RoundRect,0.250000X-0.325000X-0.650000X0.325000X-0.650000X0.325000X0.650000X-0.325000X0.650000X0*%
G04 APERTURE END LIST*
D10*
%TO.C,J2*%
X102190000Y-108570000D03*
D11*
X102190000Y-111110000D03*
X102190000Y-113650000D03*
X102190000Y-116190000D03*
%TD*%
D12*
%TO.C,R4*%
X123635000Y-111680000D03*
X125460000Y-111680000D03*
%TD*%
D13*
%TO.C,U2*%
X111945000Y-112260000D03*
X111945000Y-113210000D03*
X111945000Y-114160000D03*
X114220000Y-114160000D03*
X114220000Y-112260000D03*
%TD*%
D14*
%TO.C,C1*%
X107910000Y-118775000D03*
X107910000Y-115825000D03*
%TD*%
D15*
%TO.C,D4*%
X124550000Y-106050000D03*
X128550000Y-106050000D03*
%TD*%
D12*
%TO.C,R8*%
X131055000Y-115330000D03*
X132880000Y-115330000D03*
%TD*%
D16*
%TO.C,LED2*%
X129455000Y-111650000D03*
X127580000Y-111650000D03*
%TD*%
D10*
%TO.C,J1*%
X135880000Y-109825000D03*
D11*
X135880000Y-112365000D03*
X135880000Y-114905000D03*
%TD*%
D17*
%TO.C,C3*%
X108690000Y-107265000D03*
X108690000Y-110215000D03*
%TD*%
D15*
%TO.C,D3*%
X124672500Y-118120000D03*
X128672500Y-118120000D03*
%TD*%
D18*
%TO.C,U1*%
X112950000Y-106350000D03*
X112950000Y-106850000D03*
X112950000Y-107350000D03*
X112950000Y-107850000D03*
X112950000Y-108350000D03*
X117350000Y-108350000D03*
X117350000Y-107850000D03*
X117350000Y-107350000D03*
X117350000Y-106850000D03*
X117350000Y-106350000D03*
%TD*%
D14*
%TO.C,C4*%
X120760000Y-119725000D03*
X120760000Y-116775000D03*
%TD*%
D19*
%TO.C,L1*%
X111585000Y-118200000D03*
X114735000Y-118200000D03*
%TD*%
D12*
%TO.C,R3*%
X118357500Y-111140000D03*
X120182500Y-111140000D03*
%TD*%
D20*
%TO.C,C6*%
X119535000Y-103130000D03*
X116585000Y-103130000D03*
%TD*%
D14*
%TO.C,C5*%
X117880000Y-119725000D03*
X117880000Y-116775000D03*
%TD*%
D16*
%TO.C,LED1*%
X129455000Y-109220000D03*
X127580000Y-109220000D03*
%TD*%
D11*
%TO.C,J3*%
X115175000Y-122560000D03*
X112635000Y-122560000D03*
X110095000Y-122560000D03*
%TD*%
D12*
%TO.C,R2*%
X118347500Y-113400000D03*
X120172500Y-113400000D03*
%TD*%
D21*
%TO.C,C2*%
X109935000Y-103130000D03*
X112885000Y-103130000D03*
%TD*%
D12*
%TO.C,R1*%
X123685000Y-109210000D03*
X125510000Y-109210000D03*
%TD*%
M02*
