M48
; DRILL file {KiCad 7.0.7-7.0.7~ubuntu22.04.1} date Ср 23 авг 2023 16:26:45
; FORMAT={-:-/ absolute / metric / decimal}
; #@! TF.CreationDate,2023-08-23T16:26:45+03:00
; #@! TF.GenerationSoftware,Kicad,Pcbnew,7.0.7-7.0.7~ubuntu22.04.1
; #@! TF.FileFunction,Plated,1,2,PTH
FMAT,2
METRIC
; #@! TA.AperFunction,Plated,PTH,ViaDrill
T1C0.400
; #@! TA.AperFunction,Plated,PTH,ComponentDrill
T2C1.000
%
G90
G05
T1
X103.09Y-120.22
X104.58Y-104.74
X104.59Y-117.44
X104.6Y-101.82
X104.6Y-121.64
X106.04Y-103.28
X106.06Y-116.4
X107.41Y-120.32
X108.26Y-119.11
X108.73Y-107.27
X110.26Y-112.38
X110.27Y-114.56
X111.79Y-111.0
X113.18Y-109.83
X113.502Y-111.389
X114.73Y-103.15
X116.11Y-115.22
X117.35Y-110.02
X117.88Y-119.725
X119.535Y-103.13
X120.24Y-109.66
X121.0Y-112.32
X122.1Y-106.43
X122.75Y-109.6
X123.402Y-118.29
X123.96Y-114.85
X125.8Y-114.15
X127.48Y-107.74
X129.43Y-113.83
X129.99Y-103.28
X131.43Y-104.72
X132.61Y-117.74
X132.8Y-111.57
X132.89Y-106.12
X133.55Y-123.75
X133.61Y-121.0
X135.01Y-119.56
T2
X102.19Y-108.57
X102.19Y-111.11
X102.19Y-113.65
X102.19Y-116.19
X110.095Y-122.56
X112.635Y-122.56
X115.175Y-122.56
X135.88Y-109.825
X135.88Y-112.365
X135.88Y-114.905
T0
M30
