M48
METRIC,TZ
T1C0.400
T2C1.000
%
G90
G05
T1
X103090Y-120220
X104580Y-104740
X104590Y-117440
X104600Y-101820
X104600Y-121640
X106040Y-103280
X106060Y-116400
X107410Y-120320
X108260Y-119110
X108730Y-107270
X110260Y-112380
X110270Y-114560
X111790Y-111000
X113180Y-109830
X113502Y-111389
X114730Y-103150
X116110Y-115220
X117350Y-110020
X117880Y-119725
X119535Y-103130
X120240Y-109660
X121000Y-112320
X122100Y-106430
X122750Y-109600
X123402Y-118290
X123960Y-114850
X125800Y-114150
X127480Y-107740
X129430Y-113830
X129990Y-103280
X131430Y-104720
X132610Y-117740
X132800Y-111570
X132890Y-106120
X133550Y-123750
X133610Y-121000
X135010Y-119560
T2
X102190Y-108570
X102190Y-111110
X102190Y-113650
X102190Y-116190
X110095Y-122560
X112635Y-122560
X115175Y-122560
X135880Y-109825
X135880Y-112365
X135880Y-114905
T0
M30
